<svg width="24" height="24" viewBox="0 0 24 24" fill="none" xmlns="http://www.w3.org/2000/svg">
<path d="M8.46036 22.7094H4.57186C2.63724 22.7094 1.70361 21.8143 1.70361 19.9663V4.75875C1.70361 2.91075 2.64686 2.01562 4.57186 2.01562H8.46036C10.395 2.01562 11.3286 2.91075 11.3286 4.75875V19.9663C11.3286 21.8143 10.3854 22.7094 8.46036 22.7094ZM4.57186 3.45938C3.34949 3.45938 3.14736 3.78663 3.14736 4.75875V19.9663C3.14736 20.9384 3.34949 21.2656 4.57186 21.2656H8.46036C9.68274 21.2656 9.88486 20.9384 9.88486 19.9663V4.75875C9.88486 3.78663 9.68274 3.45938 8.46036 3.45938H4.57186Z" fill="#7B7B7B"/>
<path d="M19.5285 14.0469H15.64C13.7054 14.0469 12.7717 13.1518 12.7717 11.3038V4.75875C12.7717 2.91075 13.715 2.01562 15.64 2.01562H19.5285C21.4631 2.01562 22.3967 2.91075 22.3967 4.75875V11.3038C22.3967 13.1518 21.4535 14.0469 19.5285 14.0469ZM15.64 3.45938C14.4176 3.45938 14.2155 3.78663 14.2155 4.75875V11.3038C14.2155 12.2759 14.4176 12.6031 15.64 12.6031H19.5285C20.7509 12.6031 20.953 12.2759 20.953 11.3038V4.75875C20.953 3.78663 20.7509 3.45938 19.5285 3.45938H15.64Z" fill="#7B7B7B"/>
<path d="M19.5285 22.709H15.64C13.7054 22.709 12.7717 21.8139 12.7717 19.9659V18.2334C12.7717 16.3854 13.715 15.4902 15.64 15.4902H19.5285C21.4631 15.4902 22.3967 16.3854 22.3967 18.2334V19.9659C22.3967 21.8139 21.4535 22.709 19.5285 22.709ZM15.64 16.934C14.4176 16.934 14.2155 17.2612 14.2155 18.2334V19.9659C14.2155 20.938 14.4176 21.2652 15.64 21.2652H19.5285C20.7509 21.2652 20.953 20.938 20.953 19.9659V18.2334C20.953 17.2612 20.7509 16.934 19.5285 16.934H15.64Z" fill="#7B7B7B"/>
</svg>
