<svg width="513" height="574" viewBox="0 0 513 574" fill="none" xmlns="http://www.w3.org/2000/svg">
<path d="M170.909 543C155.249 543 139.613 542.406 124 541.217C101.69 539.519 78.6215 537.764 57.1798 512.557C42.1804 494.925 28.8961 466.637 18.7634 430.748C11.9909 406.423 7.02505 380.033 4.04019 352.506C-1.52773 302.389 -1.33808 250.171 4.59319 200.241C6.67173 183.122 9.53715 166.477 13.1483 150.543C28.7849 81.9101 57.3048 35.8383 91.3955 24.1425C91.6771 24.065 91.9618 24.0521 92.2446 24.104C92.3979 24.1215 92.5508 24.1401 92.7066 24.1263L92.9072 23.9911C93.4213 23.6123 93.9495 23.325 94.4862 23.1322C147.063 6.54161 202.645 40.1102 255.218 120.206C295.867 182.145 349.739 215.498 419.912 222.171L420.909 222.281C440.443 224.66 459.339 241.73 475.555 271.65C491.561 301.18 503.579 340.58 510.309 385.59C511.137 391.077 511.895 396.79 512.564 402.567C513.186 407.936 513.142 413.555 512.436 418.877C511.73 424.199 510.386 429.044 508.535 432.939V432.95L508.361 433.331C507.94 434.217 507.497 435.068 507.045 435.86L506.513 436.789C502.028 444.619 498.486 450.805 494.247 455.609C491.42 458.791 488.413 461.198 485.299 462.77C468.198 471.607 450.833 479.799 433.684 487.123C400.38 501.356 366.199 513.097 332.09 522.019C278.616 535.995 224.788 543.002 170.909 543ZM91.8459 26.5349C91.7412 26.5328 91.6365 26.5478 91.5329 26.5799C57.7608 38.1665 29.5109 83.7859 14.0294 151.74C10.4539 167.515 7.6168 183.996 5.55892 200.945C-0.318295 250.432 -0.505585 302.186 5.0128 351.859C7.96844 379.122 12.8862 405.26 19.5933 429.352C29.6268 464.889 42.7752 492.894 57.6173 510.339C78.8666 535.32 101.827 537.068 124.031 538.757C193.478 544.017 263.013 537.602 331.982 519.573C366.069 510.656 400.228 498.923 433.51 484.698C450.647 477.381 468.001 469.194 485.09 460.363C488.129 458.83 491.063 456.482 493.822 453.377C497.976 448.67 501.484 442.544 505.926 434.788L506.458 433.859C506.847 433.178 507.229 432.45 507.594 431.693L507.699 431.46C511.349 423.663 512.769 413.375 511.594 403.236V403.235C510.932 397.519 510.182 391.868 509.363 386.437C495.614 294.489 460.048 229.51 420.86 224.739L419.87 224.629C387.815 221.58 359.765 213.135 334.121 198.808C303.507 181.706 276.781 155.962 254.684 122.293C202.311 42.5038 146.962 9.06013 94.6146 25.572C94.1256 25.7508 93.6445 26.0152 93.1761 26.3625L92.8146 26.5769C92.6092 26.5964 92.4035 26.5912 92.1983 26.5613C92.0775 26.5481 91.9604 26.5349 91.8459 26.5349Z" fill="#F0F0F0"/>
<path d="M234.447 122.505C232.35 120.495 230.206 109.285 227.529 108.147C229.53 112.566 228.077 113.736 228.067 118.586C228.092 121.34 227.77 124.086 227.109 126.76H181.765V91.3961C181.765 88.2186 182.391 85.0722 183.608 82.1365C184.824 79.2009 186.608 76.5335 188.856 74.2866C191.105 72.0398 193.774 70.2575 196.711 69.0416C199.649 67.8256 202.798 67.1999 205.977 67.2C207.191 67.2236 208.397 67.4 209.566 67.725C213.464 68.7765 217.016 70.8338 219.867 73.6904C222.717 76.5469 224.766 80.1024 225.808 84.0001C229.264 96.6264 234.762 117.644 234.447 122.505Z" fill="#2F2E41"/>
<path d="M184.426 166.009L184.448 138.445L168.234 139.893L173.956 157.278L171.278 200.974C169.979 201.265 168.793 201.928 167.865 202.881C166.936 203.834 166.305 205.037 166.049 206.342C165.792 207.648 165.922 208.999 166.421 210.233C166.92 211.466 167.767 212.527 168.859 213.288C169.952 214.048 171.242 214.474 172.572 214.514C173.903 214.555 175.217 214.207 176.353 213.514C177.489 212.822 178.399 211.813 178.972 210.612C179.545 209.412 179.756 208.07 179.579 206.752L184.426 166.009Z" fill="#FFB6B6"/>
<path d="M216.334 362.981L222.884 362.98L226 337.731H216.332L216.334 362.981Z" fill="#FFB6B6"/>
<path d="M214.115 359.751L224.47 359.134V363.567L234.315 370.362C234.801 370.697 235.167 371.179 235.36 371.737C235.553 372.296 235.562 372.901 235.386 373.465C235.21 374.028 234.858 374.521 234.382 374.871C233.906 375.221 233.331 375.41 232.74 375.41H220.412L218.287 371.024L217.458 375.41H212.81L214.115 359.751Z" fill="#2F2E41"/>
<path d="M178.458 362.981L185.009 362.98L188.125 337.731H178.458L178.458 362.981Z" fill="#FFB6B6"/>
<path d="M176.241 359.751L186.596 359.134V363.567L196.44 370.362C196.927 370.697 197.293 371.179 197.485 371.737C197.678 372.296 197.687 372.901 197.511 373.465C197.336 374.028 196.984 374.521 196.508 374.871C196.032 375.221 195.456 375.41 194.866 375.41H182.538L180.413 371.024L179.583 375.41H174.935L176.241 359.751Z" fill="#2F2E41"/>
<path d="M210.501 108.679L196.931 108.945L187.353 119.048L179.673 120.174C176.2 120.683 173.006 122.368 170.626 124.948C168.247 127.528 166.825 130.845 166.599 134.347L167.929 141.649H175.912L180.529 168.743C178.734 173.316 178.612 176.925 182.297 178.342L193.739 199.879L227.53 184.724C229.243 181.78 229.793 178.822 228.041 175.947L230.457 134.47H238.579C238.579 126.713 235.953 120.173 228.239 119.31C225.175 118.978 222.097 118.802 219.015 118.783L210.501 108.679Z" fill="#E6E6E6"/>
<path d="M227.53 184.724C227.53 184.724 194.537 190.574 182.297 178.343C182.297 178.343 181.055 180.451 179.182 183.947C178.644 184.952 177.604 185.633 176.976 186.851C176.405 187.958 174.937 189.319 174.315 190.574C173.815 191.584 174.617 192.904 174.097 193.995C167.829 207.133 160.506 225.665 162.076 237.902C163.088 245.794 165.179 264.157 167.381 283.88C167.554 285.421 166.16 287.4 166.333 288.953C166.496 290.418 168.226 291.456 168.389 292.924C168.497 293.899 167.289 294.893 167.397 295.867C167.516 296.935 168.95 297.982 169.068 299.046C172.085 326.279 174.847 351.704 174.847 351.704H190.279L193.191 293.635L190.812 272.468L196.399 229.66L204.115 270.341L205.108 293.237L213.262 352.767H227.53V295.138L228.594 292.144L227.53 288.304L228.594 284.167L227.53 279.662V184.724Z" fill="#2F2E41"/>
<path d="M214.666 100.815C212.564 103.606 209.574 105.597 206.187 106.463C202.801 107.328 199.221 107.015 196.037 105.575C192.853 104.135 190.254 101.655 188.669 98.5422C187.084 95.4294 186.606 91.87 187.316 88.4501C188.025 85.0301 189.879 81.9536 192.572 79.7272C195.265 77.5008 198.636 76.2573 202.131 76.2014C205.626 76.1455 209.035 77.2806 211.798 79.4198C214.561 81.5589 216.512 84.5746 217.331 87.9701C217.375 88.1543 217.412 88.3375 217.449 88.5277C217.881 90.656 217.857 92.8517 217.377 94.9699C216.897 97.088 215.973 99.0803 214.666 100.815Z" fill="#FFB6B6"/>
<path d="M211.459 92.0449C211.132 90.4084 210.307 88.9129 209.096 87.764C209.215 89.3323 208.998 90.908 208.457 92.3853C204.412 92.7433 200.348 91.9388 196.745 90.0667C194.031 88.2267 190.577 88.3862 186.554 90.0667C186.554 88.1113 186.939 86.1749 187.688 84.3683C188.437 82.5616 189.534 80.9201 190.918 79.5374C192.301 78.1547 193.944 77.0579 195.752 76.3097C197.56 75.5615 199.498 75.1765 201.454 75.1768H204.115C208.067 75.1775 211.856 76.7465 214.65 79.5387C217.444 82.331 219.014 86.1179 219.015 90.0667C216.559 90.9469 214.031 91.6088 211.459 92.0449Z" fill="#2F2E41"/>
<path d="M95.0532 281.823C118.694 281.823 137.859 262.671 137.859 239.046C137.859 215.421 118.694 196.269 95.0532 196.269C71.4121 196.269 52.2473 215.421 52.2473 239.046C52.2473 262.671 71.4121 281.823 95.0532 281.823Z" fill="#F0F0F0"/>
<path d="M367.836 85.5533C391.477 85.5533 410.642 66.4015 410.642 42.7766C410.642 19.1517 391.477 0 367.836 0C344.195 0 325.03 19.1517 325.03 42.7766C325.03 66.4015 344.195 85.5533 367.836 85.5533Z" fill="#F0F0F0"/>
<path d="M445.055 47.4416V144.441C445.055 146.455 444.26 148.389 442.841 149.821C441.423 151.253 439.497 152.068 437.481 152.089C437.453 152.092 437.425 152.094 437.397 152.093H426.1C417.061 152.093 408.392 148.505 402 142.117C395.608 135.73 392.018 127.067 392.018 118.034V47.4416C392.018 45.4121 392.824 43.4657 394.26 42.0306C395.696 40.5955 397.644 39.7893 399.675 39.7893H404.253C402.132 45.9715 430.914 48.5743 432.495 39.7893H437.397C439.428 39.7893 441.376 40.5956 442.812 42.0306C444.248 43.4657 445.055 45.4121 445.055 47.4416Z" fill="#8390B3"/>
<path d="M411.528 32.5361C411.529 32.2702 411.634 32.0153 411.823 31.8273C412.011 31.6393 412.266 31.5335 412.532 31.5332H419.356C419.622 31.534 419.876 31.64 420.064 31.828C420.251 32.0159 420.357 32.2706 420.357 32.5361C420.357 32.8015 420.251 33.0562 420.064 33.2442C419.876 33.4322 419.622 33.5382 419.356 33.5389H412.532C412.266 33.5386 412.011 33.4329 411.823 33.2449C411.634 33.0569 411.529 32.8019 411.528 32.5361Z" fill="#3F3D56"/>
<path d="M439.741 164.396H396.586C393.238 164.393 390.028 163.062 387.66 160.696C385.293 158.33 383.961 155.122 383.957 151.777V83.9704C383.72 83.8003 383.527 83.5763 383.394 83.3168C383.261 83.0573 383.192 82.7699 383.193 82.4784V75.659C383.192 75.3675 383.261 75.0802 383.394 74.8208C383.527 74.5613 383.72 74.3374 383.957 74.1674V72.3371C383.72 72.1672 383.527 71.9432 383.394 71.6838C383.261 71.4244 383.192 71.137 383.193 70.8456V64.0257C383.192 63.7343 383.261 63.4469 383.394 63.1875C383.527 62.9281 383.72 62.7041 383.957 62.5342V59.2262C383.665 59.0692 383.42 58.8356 383.25 58.5506C383.08 58.2655 382.991 57.9396 382.992 57.6077V50.7883C382.991 50.4563 383.08 50.1304 383.25 49.8452C383.42 49.5601 383.665 49.3264 383.957 49.1693V40.1052C383.961 36.7593 385.293 33.5516 387.66 31.1857C390.028 28.8199 393.238 27.4891 396.586 27.4854H439.741C443.089 27.4891 446.299 28.8199 448.667 31.1858C451.034 33.5516 452.366 36.7594 452.37 40.1052V59.8631C452.597 60.0053 452.785 60.2028 452.915 60.4373C453.045 60.6718 453.113 60.9354 453.113 61.2035V74.2067C453.113 74.4749 453.045 74.7386 452.915 74.9731C452.785 75.2076 452.597 75.4053 452.37 75.5476V151.777C452.366 155.122 451.034 158.33 448.667 160.696C446.299 163.062 443.089 164.393 439.741 164.396ZM396.586 29.1629C393.683 29.1661 390.9 30.32 388.847 32.3714C386.794 34.4228 385.639 37.2041 385.636 40.1052V50.5962L384.829 50.6274C384.787 50.6289 384.747 50.6464 384.717 50.6763C384.688 50.7063 384.671 50.7463 384.67 50.7883V57.6076C384.671 57.6496 384.688 57.6896 384.717 57.7195C384.747 57.7494 384.787 57.767 384.829 57.7686L385.636 57.7993V63.712L384.997 63.8692C384.962 63.8778 384.93 63.8977 384.908 63.926C384.885 63.9543 384.872 63.9894 384.871 64.0257V70.8455C384.872 70.8819 384.885 70.9169 384.908 70.9452C384.93 70.9735 384.962 70.9935 384.997 71.002L385.636 71.1593V75.3452L384.997 75.5025C384.962 75.511 384.93 75.531 384.908 75.5593C384.885 75.5876 384.872 75.6226 384.871 75.659V82.4784C384.872 82.5148 384.885 82.5499 384.908 82.5783C384.93 82.6066 384.962 82.6267 384.997 82.6352L385.636 82.7925V151.777C385.639 154.678 386.794 157.459 388.847 159.51C390.9 161.562 393.683 162.716 396.586 162.719H439.741C442.644 162.716 445.427 161.562 447.48 159.51C449.533 157.459 450.688 154.678 450.691 151.777V74.1113H451.434V61.2994H450.691V40.1052C450.688 37.2041 449.533 34.4228 447.48 32.3714C445.427 30.3201 442.644 29.1662 439.741 29.1628L396.586 29.1629Z" fill="#3F3D56"/>
<path d="M423.17 33.5389C423.724 33.5389 424.174 33.0899 424.174 32.5361C424.174 31.9822 423.724 31.5332 423.17 31.5332C422.616 31.5332 422.167 31.9822 422.167 32.5361C422.167 33.0899 422.616 33.5389 423.17 33.5389Z" fill="#3F3D56"/>
<path d="M204.864 226.802H92.5721C90.9775 226.798 89.4493 226.164 88.3216 225.037C87.1939 223.91 86.5585 222.383 86.5542 220.79V166.112C86.5583 164.518 87.1935 162.991 88.321 161.864C89.4486 160.737 90.9767 160.102 92.5713 160.098H204.863C206.458 160.102 207.986 160.737 209.113 161.864C210.241 162.99 210.877 164.517 210.881 166.111V220.789C210.877 222.382 210.241 223.909 209.114 225.036C207.986 226.163 206.458 226.798 204.864 226.802Z" fill="white"/>
<path d="M204.864 226.802H92.5721C90.9775 226.798 89.4493 226.164 88.3216 225.037C87.1939 223.91 86.5585 222.383 86.5542 220.79V166.112C86.5583 164.518 87.1935 162.991 88.321 161.864C89.4486 160.737 90.9767 160.102 92.5713 160.098H204.863C206.458 160.102 207.986 160.737 209.113 161.864C210.241 162.99 210.877 164.517 210.881 166.111V220.789C210.877 222.382 210.241 223.909 209.114 225.036C207.986 226.163 206.458 226.798 204.864 226.802ZM92.5721 161.775C91.4222 161.779 90.3203 162.237 89.5072 163.05C88.6942 163.862 88.236 164.963 88.2329 166.113V220.789C88.2362 221.938 88.6945 223.039 89.5078 223.852C90.321 224.664 91.423 225.122 92.573 225.125H204.862C206.012 225.122 207.114 224.664 207.927 223.851C208.741 223.038 209.199 221.937 209.202 220.788V166.112C209.199 164.963 208.74 163.861 207.927 163.049C207.114 162.236 206.012 161.779 204.862 161.775L92.5721 161.775Z" fill="#3F3D56"/>
<path d="M154.736 218.722C132.59 218.722 109.497 218.51 100.881 218.373C99.7474 218.35 98.6678 217.885 97.8728 217.077C97.0778 216.269 96.6303 215.182 96.626 214.049V168.788C96.6264 168.383 96.7876 167.994 97.0744 167.706C97.3611 167.419 97.7501 167.257 98.1561 167.256H199.275C199.681 167.256 200.07 167.417 200.358 167.704C200.645 167.99 200.807 168.379 200.809 168.784V199.493C200.79 204.506 198.806 209.311 195.282 212.879C191.758 216.447 186.975 218.492 181.96 218.577C173.93 218.681 164.421 218.722 154.736 218.722Z" fill="#8390B3"/>
<path d="M193.273 196.672H101.904C101.139 196.67 100.393 196.432 99.7677 195.992C99.1424 195.551 98.6679 194.929 98.4089 194.21L88.0672 165.217C87.8679 164.658 87.8058 164.059 87.8861 163.471C87.9664 162.882 88.1868 162.322 88.5287 161.837C88.8706 161.351 89.324 160.955 89.851 160.681C90.3779 160.407 90.9629 160.264 91.5569 160.262L205.767 160.104C206.309 160.103 206.846 160.221 207.338 160.45C207.83 160.68 208.266 161.014 208.615 161.429C208.964 161.845 209.217 162.332 209.357 162.856C209.497 163.381 209.521 163.929 209.425 164.463L209.514 164.5L209.186 165.265L209.182 165.273L196.681 194.424C196.396 195.092 195.921 195.66 195.315 196.06C194.709 196.46 193.999 196.672 193.273 196.672ZM205.772 161.781L91.5602 161.94C91.2348 161.94 90.9143 162.019 90.6256 162.169C90.3369 162.319 90.0885 162.536 89.9012 162.802C89.7139 163.068 89.5932 163.375 89.5492 163.697C89.5052 164.019 89.5392 164.347 89.6483 164.654L99.9896 193.645C100.132 194.039 100.392 194.38 100.734 194.622C101.077 194.863 101.486 194.993 101.905 194.994H193.273C193.67 194.995 194.059 194.878 194.39 194.659C194.722 194.441 194.982 194.129 195.138 193.764L207.64 164.612C207.772 164.303 207.826 163.966 207.796 163.631C207.766 163.297 207.654 162.974 207.468 162.694C207.283 162.413 207.031 162.183 206.735 162.024C206.439 161.864 206.108 161.781 205.772 161.781Z" fill="#3F3D56"/>
<path d="M148.548 202.983C152.499 202.983 155.702 199.782 155.702 195.833C155.702 191.885 152.499 188.684 148.548 188.684C144.596 188.684 141.393 191.885 141.393 195.833C141.393 199.782 144.596 202.983 148.548 202.983Z" fill="white"/>
<path d="M418.812 140.915C422.763 140.915 425.966 137.714 425.966 133.765C425.966 129.816 422.763 126.615 418.812 126.615C414.86 126.615 411.657 129.816 411.657 133.765C411.657 137.714 414.86 140.915 418.812 140.915Z" fill="white"/>
<path d="M422.191 573.713C445.832 573.713 464.997 554.561 464.997 530.936C464.997 507.311 445.832 488.159 422.191 488.159C398.55 488.159 379.385 507.311 379.385 530.936C379.385 554.561 398.55 573.713 422.191 573.713Z" fill="#F0F0F0"/>
<path d="M403.836 522.649L384.724 503.794C383.794 502.869 382.69 502.136 381.476 501.638C380.261 501.14 378.961 500.886 377.648 500.892H377.581C376.259 500.896 374.95 501.161 373.732 501.674C372.513 502.186 371.408 502.935 370.481 503.878C366.207 508.199 363.777 514.008 363.7 520.083C363.623 526.159 365.906 532.027 370.069 536.455C370.271 536.673 370.481 536.883 370.69 537.092C371.853 538.247 373.136 539.273 374.518 540.154C378.296 542.593 382.702 543.884 387.2 543.87H387.343C390.43 543.859 393.485 543.237 396.33 542.039C399.176 540.841 401.755 539.092 403.919 536.891C405.795 534.99 406.839 532.423 406.824 529.753C406.808 527.083 405.733 524.528 403.836 522.649ZM402.728 535.708C399.179 539.281 394.507 541.521 389.499 542.053C384.49 542.585 379.451 541.375 375.231 538.627C374.024 537.829 372.897 536.916 371.865 535.901C367.747 531.837 365.414 526.305 365.377 520.521C365.341 514.737 367.606 509.176 371.672 505.06C372.445 504.273 373.367 503.647 374.385 503.22C375.402 502.792 376.494 502.571 377.598 502.569H377.648C378.741 502.565 379.824 502.777 380.835 503.191C381.846 503.606 382.765 504.215 383.541 504.985L402.652 523.848C404.234 525.412 405.131 527.539 405.145 529.763C405.159 531.986 404.29 534.125 402.728 535.708Z" fill="#3F3D56"/>
<path d="M341.129 460.766L322.017 441.902C320.136 440.037 317.592 438.993 314.942 439H314.883C313.559 439.005 312.249 439.273 311.029 439.787C309.808 440.301 308.702 441.051 307.774 441.994C304.241 445.58 301.95 450.202 301.237 455.183C300.525 460.164 301.427 465.242 303.812 469.673L303.821 469.682C304.805 471.494 306.027 473.167 307.455 474.656C307.614 474.84 307.799 475.025 307.984 475.209C312.372 479.563 318.309 482 324.493 481.986H324.644C327.732 481.973 330.787 481.349 333.632 480.15C336.477 478.951 339.057 477.2 341.221 474.999C342.15 474.059 342.885 472.945 343.383 471.72C343.882 470.496 344.134 469.185 344.125 467.863C344.117 466.542 343.848 465.235 343.333 464.017C342.819 462.799 342.07 461.694 341.129 460.766ZM340.021 473.825C338.012 475.868 335.618 477.492 332.977 478.605C330.337 479.718 327.502 480.297 324.636 480.309H324.493C320.189 480.307 315.982 479.034 312.401 476.649C308.819 474.264 306.023 470.874 304.364 466.906C302.706 462.937 302.258 458.567 303.079 454.345C303.899 450.123 305.95 446.237 308.974 443.177C310.539 441.596 312.667 440.7 314.892 440.686C317.118 440.672 319.257 441.541 320.842 443.102L339.954 461.957C341.535 463.523 342.43 465.652 342.442 467.877C342.455 470.102 341.584 472.241 340.021 473.825Z" fill="#3F3D56"/>
<path d="M405.057 528.577L383.987 507.781C382.605 506.421 380.74 505.663 378.8 505.675C376.86 505.687 375.004 506.468 373.64 507.846C371.933 509.569 370.582 511.612 369.666 513.857C368.749 516.102 368.284 518.506 368.298 520.931C368.312 523.356 368.804 525.755 369.746 527.989C370.688 530.224 372.061 532.252 373.788 533.956C375.514 535.66 377.56 537.007 379.808 537.92C382.055 538.834 384.461 539.296 386.888 539.279C389.315 539.263 391.714 538.769 393.949 537.825C396.185 536.881 398.212 535.506 399.915 533.779L405.057 528.577Z" fill="#8390B3"/>
<path d="M342.354 466.69L321.284 445.894C319.902 444.534 318.037 443.776 316.097 443.788C314.158 443.801 312.302 444.581 310.937 445.959C309.23 447.682 307.88 449.725 306.963 451.97C306.047 454.215 305.582 456.619 305.596 459.044C305.609 461.469 306.101 463.868 307.043 466.102C307.985 468.337 309.358 470.365 311.085 472.069C312.811 473.773 314.857 475.12 317.105 476.033C319.353 476.947 321.759 477.409 324.185 477.392C326.612 477.376 329.011 476.882 331.247 475.938C333.482 474.994 335.509 473.619 337.213 471.892L342.354 466.69Z" fill="#8390B3"/>
<path d="M381.904 541.53L381.4 542.855C379.033 541.957 376.739 541.057 374.518 540.154C335.17 524.109 316.386 505.329 303.821 469.682L303.813 469.673C303.217 467.996 302.638 466.279 302.075 464.523L303.401 464.095C303.845 465.784 304.493 467.412 305.332 468.943C306.02 470.898 306.728 472.802 307.455 474.655C319.265 504.742 336.681 521.936 370.069 536.455C371.748 537.185 373.469 537.909 375.231 538.627C377.278 539.96 379.533 540.941 381.904 541.53Z" fill="#3F3D56"/>
<path d="M321.667 480.459L320.487 481.653L364.08 524.68L365.26 523.486L321.667 480.459Z" fill="#3F3D56"/>
<path d="M238.173 159.628L238.195 132.064L221.981 133.512L227.703 150.896L206.932 182.362C205.633 182.653 204.447 183.315 203.519 184.269C202.59 185.222 201.96 186.425 201.703 187.73C201.447 189.035 201.576 190.387 202.075 191.62C202.574 192.853 203.421 193.915 204.514 194.675C205.606 195.435 206.896 195.862 208.227 195.902C209.557 195.942 210.871 195.595 212.007 194.902C213.143 194.209 214.054 193.201 214.626 192C215.199 190.799 215.41 189.458 215.233 188.139L238.173 159.628Z" fill="#FFB6B6"/>
</svg>
